<svg width="68" height="68" viewBox="0 0 68 68" fill="none" xmlns="http://www.w3.org/2000/svg">
<g clip-path="url(#clip0_62_839)">
<path d="M34.0025 61.7187C18.5362 61.7187 5.99902 49.1815 5.99902 33.7152C5.99902 18.2488 18.5362 5.71167 34.0025 5.71167C49.4689 5.71167 62.0061 18.2488 62.0061 33.7152C62.0061 49.1815 49.4689 61.7187 34.0025 61.7187ZM20.0008 33.7152C20.0008 37.4287 21.476 40.9901 24.1018 43.6159C26.7276 46.2418 30.289 47.7169 34.0025 47.7169C37.716 47.7169 41.2774 46.2418 43.9033 43.6159C46.5291 40.9901 48.0043 37.4287 48.0043 33.7152H42.4036C42.4036 35.9433 41.5185 38.0801 39.943 39.6556C38.3675 41.2311 36.2306 42.1162 34.0025 42.1162C31.7744 42.1162 29.6376 41.2311 28.0621 39.6556C26.4866 38.0801 25.6015 35.9433 25.6015 33.7152H20.0008Z" fill="#212121"/>
</g>
<defs>
<clipPath id="clip0_62_839">
<rect width="67.2084" height="67.2084" fill="white" transform="translate(0.398438 0.11084)"/>
</clipPath>
</defs>
</svg>
