<svg width="58" height="73" viewBox="0 0 58 73" fill="none" xmlns="http://www.w3.org/2000/svg">
<path d="M57.2913 58.4921C56.8307 57.4291 56.1929 56.4724 55.378 55.622C54.563 54.8071 53.6063 54.1339 52.5079 53.7087C51.4094 53.248 50.2047 53 49 53C47.7953 53 46.5906 53.248 45.4921 53.7087C44.4291 54.1693 43.4724 54.8071 42.622 55.622C41.8071 56.437 41.1339 57.3937 40.7087 58.4921C40.248 59.5906 40 60.7953 40 62C40 63.2047 40.248 64.4094 40.7087 65.5079C41.1693 66.5709 41.8071 67.5276 42.622 68.378C43.437 69.1929 44.3937 69.8661 45.4921 70.2913C46.5906 70.752 47.7953 71 49 71C50.2047 71 51.4094 70.752 52.5079 70.2913C53.5709 69.8307 54.5276 69.1929 55.378 68.378C56.1929 67.563 56.8661 66.5709 57.2913 65.5079C57.752 64.4094 58 63.2047 58 62C58 60.7953 57.752 59.5906 57.2913 58.4921ZM54.4213 59.8032C53.6417 60.0866 52.1181 60.3701 51.9055 60.4055L49.2126 58.4567V56.3661C50.5591 55.7638 52.1181 55.7283 52.3307 55.7283C53.3228 56.3661 54.315 57.3228 54.5276 57.5C54.4921 58.1378 54.4567 59.4843 54.4213 59.8032ZM45.8819 55.6929C46.1299 55.6929 47.6535 55.7638 49 56.3307V58.4567L46.3071 60.4055C46.0591 60.3701 44.5709 60.0866 43.7913 59.8032C43.7913 59.4843 43.7205 58.1024 43.7205 57.5C43.8976 57.3228 44.8898 56.3661 45.8819 55.6929ZM43.7559 60.0157C44.5354 60.2992 45.9528 60.5827 46.2717 60.6181L47.2992 63.7717C47.0866 64.3032 46.5197 65.3307 46.378 65.5787C45.315 65.6496 44.1811 65.4724 43.9685 65.437C43.1181 64.2323 42.5512 62.7795 42.4803 62.5315C42.6575 61.9646 43.5433 60.3701 43.7559 60.0157ZM47.7244 68.0591C47.5827 67.8465 46.9449 66.7835 46.5197 65.685C46.626 65.4724 47.1929 64.4449 47.4409 63.878H50.7362C50.9843 64.4449 51.5512 65.4724 51.6575 65.685C51.4449 66.3583 50.8425 67.7756 50.7362 68.0591C49.3189 68.2717 48.0079 68.0945 47.7244 68.0591ZM54.2795 65.437C54.0669 65.4724 52.9331 65.6496 51.8701 65.5787C51.7283 65.3307 51.1614 64.3032 50.9488 63.7717L51.9764 60.6535C52.2598 60.6181 53.7126 60.3346 54.5276 60.0512C54.7402 60.4055 55.5906 62 55.8032 62.5669C55.6969 62.7441 55.1654 64.1969 54.2795 65.437ZM54.9528 56.0472C55.2362 56.3307 55.5197 56.6496 55.7323 56.9685C55.2717 57.1102 54.811 57.2874 54.6339 57.3583C54.4213 57.1457 53.4646 56.2598 52.5079 55.622C52.5079 55.5866 52.3307 54.9134 52.0827 54.2047C52.1535 54.2402 52.2244 54.2402 52.2598 54.2756C53.2874 54.6654 54.1732 55.2677 54.9528 56.0472ZM43.0472 56.0472C43.8268 55.2677 44.7126 54.6654 45.7402 54.2402C45.8465 54.2047 45.9528 54.1339 46.0591 54.0984C45.9173 54.7362 45.811 55.374 45.7756 55.5512C44.7835 56.2244 43.8268 57.1102 43.5787 57.3228C43.3661 57.252 42.7638 57.0394 42.2677 56.9331C42.5157 56.6142 42.7638 56.3307 43.0472 56.0472ZM40.5669 62.0354C41.2047 62.3189 42.0551 62.5315 42.2677 62.6024C42.374 62.8858 42.9055 64.3032 43.7559 65.5079C43.5787 65.7205 42.9764 66.5354 42.5512 67.4567C41.9843 66.8189 41.5591 66.0748 41.2047 65.2953C40.815 64.2677 40.5669 63.1693 40.5669 62.0354ZM46.3425 70.0079C46.7323 69.4055 47.4764 68.4843 47.6535 68.2717C47.689 68.2717 48.3622 68.378 49.2835 68.378C49.7441 68.378 50.2402 68.3425 50.8071 68.2717C50.9488 68.4843 51.5866 69.3346 51.9764 69.9016C51.0197 70.2559 50.063 70.4331 49.0354 70.4331C48.0787 70.4331 47.1929 70.2913 46.3425 70.0079ZM56.7598 65.2953C56.4409 66.0394 56.0157 66.7126 55.5197 67.3504C55.1299 66.5 54.6339 65.7559 54.4567 65.5433C55.3071 64.3386 55.8386 62.9213 55.9449 62.6378C56.1575 62.6024 56.7953 62.4252 57.3976 62.1772C57.3976 63.2402 57.185 64.3032 56.7598 65.2953Z" fill="#212121"/>
<path d="M31.7087 72.0899C29.6288 72.0899 26.5709 71.8078 25.5103 71.4083C24.677 71.0949 24.1053 70.1939 23.9745 69.003C23.8092 67.4438 24.4566 65.8926 25.6205 65.0464C26.3712 64.5058 30.9787 56.6945 33.83 51.6959L29.7321 45.1303L23.2238 49.0948C23.0791 49.2044 22.5902 49.5492 21.8326 49.5492C21.3436 49.5492 20.8408 49.4081 20.3381 49.1183C20.3381 49.1183 20.3105 49.1104 20.2554 49.1104C18.8367 49.1104 13.382 53.3882 10.2828 56.0912C10.1313 56.2479 5.90946 60.4552 2.89977 60.4552C2.76891 60.4552 2.64494 60.4474 2.51409 60.4317C1.41903 60.2907 0.757862 59.4915 0.792298 58.3398C0.847395 56.4046 3.15459 53.4274 7.92739 53.1218C9.49766 51.7351 10.5514 50.4032 11.4881 49.2279C12.8104 47.5591 13.9674 46.1019 16.0198 45.24C15.7168 44.5427 15.641 43.8924 15.7856 43.2813C16.068 42.1061 17.1286 41.3696 18.0446 40.8604C19.7044 39.0349 24.2568 32.3361 25.1384 31.0277C24.7321 29.6253 24.5254 27.1338 26.3023 26.178C27.9277 25.3005 27.5351 22.2527 27.4387 21.6495C27.4249 21.5554 27.4112 21.5006 27.3974 21.4692C27.1357 21.5319 26.5089 22.1274 26.0888 22.5269C25.6412 22.95 25.1866 23.3888 24.7321 23.7022C24.4152 23.9529 24.1053 24.0861 23.8092 24.0861C23.2651 24.0861 22.9414 23.663 22.721 23.3731L22.7003 23.3496C21.9083 24.1174 19.4772 27.1573 15.4551 32.4145C16.0887 33.1118 16.9289 34.3183 16.8463 35.2742C16.8118 35.6816 16.619 36.0028 16.3022 36.1987L13.747 37.844C13.6782 37.891 13.6024 37.9145 13.5267 37.9145C13.4302 37.9145 13.3338 37.8753 13.2512 37.8048C13.2236 37.7813 10.6134 35.423 12.7209 31.5605C14.4151 28.4579 18.7058 22.1822 19.8009 20.5996C19.6562 20.388 19.5185 20.0903 19.5254 19.7378C19.5323 19.2442 19.8009 18.8133 20.3174 18.4529C21.5226 17.6067 25.9993 12.4201 26.6673 11.2292C27.2183 10.242 29.8768 9.98344 31.2473 9.91292C31.5021 9.46634 32.1082 8.70636 33.3135 8.70636H33.4168C33.4719 8.7142 33.4994 8.7142 33.527 8.7142C33.6785 8.7142 33.7405 8.66719 33.7749 8.62018C34.0366 8.32246 34.0297 7.2726 34.0297 6.34026C34.0228 4.73412 34.0159 2.73625 35.0903 1.51402C35.7102 0.808887 36.6193 0.448486 37.797 0.448486C40.0629 0.456321 41.1373 1.52185 41.64 2.41502C42.556 4.02899 42.3494 6.32459 41.7365 7.88371C41.5712 8.33813 41.4059 8.74554 41.2681 9.09027C41.1028 9.49768 40.9238 9.9521 40.8756 10.1715C41.4472 10.3438 41.9982 10.6102 42.2943 11.2213C42.6456 11.9421 42.5767 12.9763 42.0533 14.8097L42.0257 14.9115C41.4265 17.0112 40.7998 19.1815 41.5712 20.4037C42.1152 21.3909 42.618 22.3781 43.0932 23.3418C43.8715 24.9009 44.6015 26.366 45.1043 26.8439L45.1456 26.8831C45.5106 27.3218 45.6484 27.8703 45.5244 28.4187C45.3384 29.2492 44.6359 29.8603 44.2158 30.017C44.0643 30.0719 43.8784 30.0954 43.6511 30.0954C43.6029 30.0954 42.3976 30.0875 42.0257 29.5313C41.8122 29.2022 41.8466 28.8183 41.8811 28.4422C41.9155 28.0583 41.9568 27.6587 41.7847 27.22C41.3026 26.4522 40.9995 25.9743 40.7998 25.653C40.7654 27.4315 40.91 31.2236 41.1166 34.7022C41.1304 34.9138 41.0271 35.1175 40.8549 35.2037L39.691 35.8069C40.0904 38.2122 41.7158 48.2878 41.0891 50.0584C40.4692 51.8213 31.7983 63.8634 30.1316 66.1668C30.3726 66.5742 30.9649 66.8876 31.6399 67.248C32.9071 67.9218 34.4912 68.7601 34.9113 70.9225C34.9526 71.1262 34.9044 71.3299 34.7942 71.4944C34.622 71.6903 34.3465 72.0899 31.7087 72.0899Z" fill="#212121"/>
</svg>
