<svg width="82" height="47" viewBox="0 0 82 47" fill="none" xmlns="http://www.w3.org/2000/svg">
<path d="M11.2225 0.47003V2.15665H13.3782V3.89629C13.6584 3.82569 13.9532 3.75392 14.2407 3.68568V0.469971L11.2225 0.47003ZM68.5647 0.47003V3.68574C68.8516 3.75398 69.1469 3.82576 69.4272 3.89634V2.15671H71.583V0.47009L68.5647 0.47003ZM6.04873 2.15665V3.84327H8.20445V5.50339C8.48114 5.39985 8.77888 5.28748 9.06699 5.18688V2.15596L6.04873 2.15665ZM41.4026 2.15665C19.9717 2.15665 2.59958 6.68775 2.59958 12.2771C2.59958 13.9379 4.13999 15.5069 6.85682 16.8894C10.3437 14.189 16.3055 11.1634 21.6503 9.98388C27.602 8.67078 34.5064 8.00839 41.4014 7.95418C48.2963 7.89996 55.1819 8.43835 61.1263 9.61432C66.8229 10.7415 73.2082 13.9365 76.5658 16.5455C78.8966 15.2454 80.2036 13.8059 80.2036 12.2756C80.2036 6.68624 62.8315 2.15514 41.4006 2.15514L41.4026 2.15665ZM73.7384 2.15665V5.18757C74.0235 5.28699 74.3267 5.37524 74.601 5.47761V3.84325H76.7567V2.15662L73.7384 2.15665ZM0.875 5.52989V7.21652H3.03072V8.08602C3.30139 7.89246 3.5877 7.69303 3.89326 7.50654V5.52985L0.875 5.52989ZM78.9122 5.52989V7.50658C79.2111 7.68954 79.5088 7.89662 79.7747 8.08607V7.21656H81.9304V5.52994L78.9122 5.52989ZM79.3963 16.7312C77.1462 18.2213 73.8247 19.4985 69.8845 20.5263C62.4326 22.47 52.4355 23.6102 41.4012 23.6102C30.367 23.6102 20.3706 22.47 12.9179 20.5263C9.20259 19.5573 6.04538 18.3502 3.81036 16.9682L8.63363 35.8916C15.3094 39.0261 22.0817 41.1823 28.8974 42.3754L27.6577 37.1042C27.5231 36.5477 27.7022 35.9276 28.1161 35.5228L32.4275 31.3059C32.709 31.037 33.0868 30.8664 33.4783 30.8318H49.1612C49.6166 30.8217 50.0736 30.9965 50.4009 31.3059L54.7123 35.5228C55.1255 35.9276 55.3054 36.5477 55.1706 37.1042L53.9039 42.4283C60.9293 41.2476 67.978 39.0756 75.03 35.8924L79.3963 16.7312ZM33.641 32.5175L31.0541 35.0479H51.749L49.162 32.5175H33.641ZM33.2369 38.421L35.0426 46.0113H47.788L49.5937 38.421H33.2369Z" fill="#212121"/>
<path d="M10.6025 17.7004C13.643 15.7308 18.1998 13.4887 22.4049 12.561C22.4049 12.561 25.7491 11.9163 31.622 11.2405C37.4949 10.5646 41.431 10.6103 41.431 10.6103C48.1163 10.559 54.8126 11.1015 60.4552 12.2181C64.9933 13.1169 69.919 15.5096 72.9311 17.4368C71.9976 17.7763 70.9961 18.1058 69.9128 18.4122C63.4395 15.0372 51.7677 12.4034 41.4034 12.4034C31.0375 12.4034 19.3891 15.0366 12.9201 18.4122C12.1075 18.1822 11.3316 17.9486 10.6025 17.7004Z" fill="#212121"/>
<path d="M18.6055 19.9661C18.6055 19.9661 28.7269 16.0101 41.4022 16.0127C54.0775 16.0153 64.2267 19.9661 64.2267 19.9661C64.2267 19.9661 52.0047 21.9163 41.4022 21.9163C30.7997 21.9163 18.6055 19.9661 18.6055 19.9661Z" fill="#212121"/>
</svg>
