<svg width="58" height="60" viewBox="0 0 58 60" fill="none" xmlns="http://www.w3.org/2000/svg">
<path d="M9.29083 51.446C13.2706 54.4908 16.0343 55.0345 16.0343 55.0345C16.0343 55.0345 10.9491 63.5165 3.98454 58.2968C-2.86943 53.1859 3.65289 46.335 3.98454 46.0088C3.98454 46.0088 5.31111 48.4012 9.29083 51.446Z" fill="#212121"/>
<path d="M3.98535 46.0088C4.64864 47.0962 5.53302 48.0749 6.41741 48.9449C7.30179 49.8148 8.29672 50.6848 9.29165 51.446C10.2866 52.2072 11.3921 52.9684 12.4975 53.5121C13.603 54.1646 14.819 54.7083 16.0351 55.0345V55.1433C15.3718 55.1433 14.7085 54.9258 14.0452 54.817C13.3819 54.5995 12.8292 54.3821 12.1659 54.1646C10.9499 53.6209 9.84439 52.9684 8.73891 52.0984C7.74398 51.3372 6.74905 50.4673 5.86467 49.3798C5.09083 48.4012 4.317 47.3137 3.98535 46.0088Z" fill="#212121"/>
<path d="M24.2147 48.2922C25.4307 47.531 26.6467 46.8785 27.8627 46.1173C27.4205 45.8998 27.0889 45.6823 26.6467 45.4648C25.3201 46.2261 23.9936 46.8785 22.667 47.6397C23.1092 47.966 23.6619 48.1834 24.2147 48.2922Z" fill="#212121"/>
<path d="M57.3803 27.5217C55.7221 27.1955 54.0639 27.3042 52.4057 27.6304C51.4107 27.8479 50.5264 28.1741 49.642 28.6091C48.3154 30.4578 46.6572 32.1977 44.8884 33.7201C42.6775 35.46 40.356 36.9824 37.7028 38.1786C36.3762 38.7223 35.0497 39.266 33.7231 39.701C33.6125 39.8097 33.502 39.9185 33.3914 40.0272C32.8387 40.6797 32.3965 41.4409 32.1754 42.4196C30.9594 43.072 29.7434 43.7245 28.5273 44.4857C28.9695 44.7032 29.3012 44.9207 29.7434 45.0294C30.6278 44.4857 31.6227 43.942 32.5071 43.3983C33.8336 43.3983 35.0497 43.2895 36.3762 43.1808C37.7028 42.9633 38.9188 42.6371 40.1349 42.3108C42.6775 41.5496 44.999 40.3535 47.2099 38.9398C49.3103 37.5261 51.3002 35.7862 53.069 33.9376C53.9534 32.9589 54.7272 31.9802 55.501 30.8927C56.1643 29.8053 56.9381 28.7179 57.3803 27.5217ZM32.286 42.4196C33.7231 41.6584 33.7231 41.6584 32.286 42.4196V42.4196Z" fill="#212121"/>
<path d="M22.2258 49.4885C21.6731 49.271 21.1203 49.0535 20.6782 48.7273C19.7938 49.1623 18.9094 49.706 18.025 50.141C17.9145 50.2497 17.8039 50.3585 17.6934 50.4672C18.5777 50.9022 19.1305 51.2284 19.1305 51.2284L18.9094 51.4459C20.0149 50.7934 21.1203 50.141 22.2258 49.4885Z" fill="#212121"/>
<path d="M24.5483 44.3775C24.1061 44.0513 23.5534 43.8338 23.1112 43.5076C21.8951 44.2688 20.5686 45.1387 19.3525 45.8999C19.9053 46.2262 20.458 46.5524 20.9002 46.8786C22.1162 46.0087 23.3323 45.2475 24.5483 44.3775Z" fill="#212121"/>
<path d="M53.7311 19.802C52.8467 19.6933 51.8518 19.6933 50.9674 19.802C50.083 19.9108 49.1987 20.1282 48.3143 20.4545C47.4299 20.7807 46.6561 21.1069 45.8822 21.5419C45.7717 21.6507 45.6611 21.7594 45.5506 21.7594C44.4451 23.8255 43.008 25.6742 41.3498 27.4141C39.2493 29.589 36.9278 31.4376 34.3852 32.96C33.0587 33.7212 31.7321 34.3737 30.4055 34.9174C30.295 34.9174 30.1844 35.0261 30.1844 35.0261C29.8528 35.4611 29.5211 35.8961 29.1895 36.4398C28.9684 36.9835 28.6368 37.5273 28.5262 38.071C28.4157 38.6147 28.3051 39.2672 28.4157 39.9196C27.1996 40.7896 25.9836 41.5508 24.7676 42.312C25.2098 42.5295 25.652 42.8557 26.0942 43.0732C27.3102 42.2032 28.5262 41.3333 29.7422 40.4633V40.3546C35.0485 38.9409 40.1337 36.4398 44.3346 32.8513C46.435 31.1114 48.3143 29.0452 49.9725 26.8704C51.6307 24.8042 52.9573 22.4119 53.7311 19.802Z" fill="#212121"/>
<path d="M17.5828 46.9878C16.6985 47.5315 15.9246 47.9665 15.1508 48.5102C15.0402 48.6189 14.9297 48.6189 14.9297 48.7277C15.4824 49.1627 16.1457 49.4889 16.5879 49.8151C17.4723 49.1627 18.4672 48.6189 19.3516 47.9665C18.6883 47.6403 18.1356 47.314 17.5828 46.9878Z" fill="#212121"/>
<path d="M15.5928 45.5739C15.3717 45.4651 15.2612 45.2477 15.0401 45.1389C14.3768 45.7914 13.6029 46.4438 12.9396 47.0963C12.8291 47.205 12.8291 47.205 12.8291 47.3138C13.4924 47.7488 14.0451 48.1837 14.5979 48.51C15.2612 47.7488 16.035 46.9876 16.6983 46.2264C16.3666 46.1176 16.035 45.9001 15.5928 45.5739Z" fill="#212121"/>
<path d="M18.0244 45.0296C18.9088 44.0509 19.9037 43.0722 20.7881 42.0935C20.2354 41.7673 19.7932 41.4411 19.351 41.0061C18.3561 41.9848 17.3611 42.8547 16.3662 43.8334C16.919 44.2684 17.4717 44.5946 18.0244 45.0296Z" fill="#212121"/>
<path d="M48.7571 11.6458C48.0938 11.6458 47.4305 11.6458 46.7672 11.6458C46.1039 11.7545 45.4407 11.8632 44.7774 11.972C43.4508 12.1895 42.1242 12.7332 40.9082 13.2769C39.6922 13.8206 38.4761 14.4731 37.3707 15.343C36.9285 15.6693 36.5968 15.9955 36.2652 16.3217C35.7124 18.1704 35.0492 19.9103 34.0542 21.5414C32.5066 24.26 30.5167 26.6524 28.0846 28.501C27.3108 29.1535 26.4264 29.6972 25.542 30.2409C25.2104 30.7847 24.9893 31.2196 24.8788 31.7634C24.7682 32.0896 24.6577 32.4158 24.5471 32.742C24.4366 33.0683 24.4366 33.3945 24.326 33.7207C24.2155 34.3732 24.2155 35.1344 24.326 35.7869C23.11 36.9831 21.7834 38.1792 20.5674 39.4842C21.0096 39.8104 21.4518 40.1366 22.0045 40.4629C23.3311 39.0492 24.7682 37.5268 26.0948 36.1131C31.6222 34.047 36.7074 30.8934 40.6871 26.6524C42.677 24.5863 44.4457 22.1939 45.7723 19.584C47.2094 17.1917 48.3149 14.4731 48.7571 11.6458Z" fill="#212121"/>
<path d="M13.3818 41.2242C13.824 41.6592 14.3768 42.0942 14.819 42.5292C15.4822 41.333 16.1455 40.1368 16.8088 39.0494C16.3666 38.6144 15.9244 38.2881 15.3717 37.9619C14.7084 39.0494 14.0451 40.1368 13.3818 41.2242Z" fill="#212121"/>
<path d="M12.2764 42.8547C11.7236 43.7247 11.1709 44.7034 10.6182 45.5733C11.1709 46.0083 11.7236 46.4433 12.2764 46.987C12.3869 46.8783 12.3869 46.8783 12.4975 46.7695C12.9397 45.8996 13.3819 45.0296 13.9346 44.2684C13.3819 43.7247 12.8291 43.2897 12.2764 42.8547Z" fill="#212121"/>
<path d="M36.4859 3.92456C33.0589 6.09944 30.2952 8.4918 27.9737 10.9929C27.5315 13.1678 26.7577 15.2339 25.8733 17.3C24.5468 19.9099 23.1096 22.411 21.2303 24.6946C20.6776 25.3471 20.1248 25.9995 19.6826 26.5433C19.1299 28.9356 19.0194 30.893 18.9088 32.0892C18.0244 33.5029 17.14 34.9165 16.3662 36.2215C16.8084 36.5477 17.2506 36.9827 17.6928 37.3089C18.4666 35.7865 19.351 34.3728 20.1248 32.8504V32.7417C22.778 31.4367 25.3206 29.8056 27.6421 27.8482C29.8531 25.8908 31.7324 23.4984 33.1695 20.8886C34.6066 18.2787 35.6015 15.4514 36.1543 12.6241C36.707 9.90547 36.9281 6.86064 36.4859 3.92456Z" fill="#212121"/>
<path d="M14.0449 30.3498C13.7133 31.3284 13.2711 32.1984 12.9395 33.1771C13.2711 33.5033 13.6027 33.8296 14.0449 34.2645C14.4871 33.1771 14.8188 31.9809 15.261 30.8935C19.2407 26.87 22.7782 22.194 25.2103 17.083C26.4263 14.4732 27.3107 11.7546 27.8634 9.03597C28.4162 6.20863 28.5267 3.38129 27.974 0.553955C26.3157 1.85888 24.8786 3.27255 23.4415 4.90371C22.4466 6.09989 21.4516 7.40481 20.5673 8.70974C20.4567 10.9934 20.0145 13.1682 19.3512 15.3431C18.5774 17.7355 17.693 20.0191 16.3664 22.194C15.7032 23.2814 15.0399 24.2601 14.3766 25.3475C14.266 25.1301 14.1555 25.2388 14.1555 25.3475C14.0449 26 14.0449 26.6525 13.9344 27.3049C13.9344 28.3924 13.9344 29.3711 14.0449 30.3498Z" fill="#212121"/>
<path d="M12.1664 35.0259C11.7242 36.2221 11.282 37.527 10.8398 38.7232C11.282 39.1581 11.6137 39.5931 12.1664 40.0281C12.6086 38.7232 13.0508 37.4182 13.493 36.1133C12.9403 35.7871 12.6086 35.3521 12.1664 35.0259Z" fill="#212121"/>
<path d="M10.0656 40.6802C9.62344 41.7676 9.2918 42.9638 8.84961 44.0512C9.2918 44.4862 9.73399 44.9212 10.2867 45.3562C10.3973 45.2474 10.3973 45.1387 10.5078 45.0299C10.8395 44.0512 11.0606 43.0725 11.3922 41.9851C10.95 41.5501 10.5078 41.1152 10.0656 40.6802Z" fill="#212121"/>
<path d="M8.51758 36.2216C8.73867 36.439 9.07032 36.874 9.62306 37.4177C9.9547 36.1128 10.2863 34.6991 10.618 33.3942C10.2863 33.068 9.9547 32.633 9.62306 32.4155C9.18087 33.7205 8.84922 34.9166 8.51758 36.2216Z" fill="#212121"/>
<path d="M11.0602 27.4137C10.7285 28.3924 10.5074 29.3711 10.1758 30.3497C10.3969 30.5672 10.618 30.8935 11.0602 31.3284C11.3918 30.241 11.6129 29.0448 11.9445 27.9574C14.8188 24.0426 17.1403 19.6929 18.5774 15.0169C19.2407 12.7333 19.7934 10.3409 19.904 7.83979C20.1251 5.44743 20.0145 2.94632 19.5724 0.553955C17.9141 2.4026 16.477 4.35999 15.1504 6.42612C13.8239 8.49225 12.9395 10.7759 12.2762 13.1682C10.8391 17.6267 10.7285 22.6289 11.0602 27.4137Z" fill="#212121"/>
<path d="M7.85353 38.3962C7.52188 39.7012 7.07969 41.1148 6.74805 42.4198L6.96914 42.0935C6.96914 42.0935 7.30079 42.5285 8.07462 43.181C8.18517 43.0722 8.29572 42.9635 8.29572 42.8547C8.51681 41.7673 8.84846 40.6799 9.06955 39.5924C8.62736 39.1574 8.18517 38.7225 7.85353 38.3962Z" fill="#212121"/>
<path d="M17.6933 50.467C17.3616 50.2495 16.9195 50.032 16.5878 49.8146C16.0351 49.4883 15.4823 49.1621 14.9296 48.7271C14.819 48.7271 14.7085 48.6184 14.7085 48.5096C14.1558 48.1834 13.4925 47.7484 12.9397 47.3135C12.8292 47.3135 12.8292 47.2047 12.7186 47.2047C12.6081 47.096 12.4975 47.096 12.4975 46.9872C11.9448 46.5522 11.2815 46.0085 10.8393 45.5735C10.7288 45.4648 10.7288 45.4648 10.6182 45.3561C10.0655 44.9211 9.62329 44.4861 9.1811 44.0511C8.84946 43.7249 8.51781 43.3987 8.29672 43.1812C7.63343 42.5287 7.19124 42.0938 7.19124 42.0938L6.97014 42.42L6.30686 43.2899L3.98535 46.0085C3.98535 46.0085 5.31193 48.4009 9.29165 51.4457C13.2714 54.4905 16.0351 55.0343 16.0351 55.0343L18.246 52.2069L18.9093 51.337L19.1304 51.1195C19.1304 51.2282 18.5777 51.0107 17.6933 50.467Z" fill="#212121"/>
<path d="M6.9707 42.0938C8.62892 43.9424 10.6188 45.6823 12.6086 47.2047C14.5985 48.7271 16.8095 50.1408 19.0204 51.2282V51.337C18.3571 51.2282 17.8044 51.0107 17.1411 50.7933C16.5884 50.5758 15.9251 50.2495 15.3723 50.032C14.1563 49.4883 13.0508 48.7271 12.0559 47.9659C11.061 47.2047 10.066 46.3348 9.18166 45.3561C8.29728 44.2686 7.52344 43.2899 6.9707 42.0938Z" fill="#212121"/>
</svg>
