<svg width="44" height="44" viewBox="0 0 44 44" fill="none" xmlns="http://www.w3.org/2000/svg">
<path d="M11.1663 8.83341V2.33341C11.1663 1.75878 11.3946 1.20768 11.8009 0.80135C12.2073 0.395021 12.7584 0.166748 13.333 0.166748H30.6663C31.241 0.166748 31.7921 0.395021 32.1984 0.80135C32.6047 1.20768 32.833 1.75878 32.833 2.33341V8.83341H41.4997C42.0743 8.83341 42.6254 9.06169 43.0317 9.46802C43.4381 9.87434 43.6663 10.4254 43.6663 11.0001V41.3334C43.6663 41.908 43.4381 42.4591 43.0317 42.8655C42.6254 43.2718 42.0743 43.5001 41.4997 43.5001H2.49967C1.92504 43.5001 1.37394 43.2718 0.96761 42.8655C0.561281 42.4591 0.333008 41.908 0.333008 41.3334V11.0001C0.333008 10.4254 0.561281 9.87434 0.96761 9.46802C1.37394 9.06169 1.92504 8.83341 2.49967 8.83341H11.1663ZM4.66634 30.5001V39.1667H39.333V30.5001H4.66634ZM19.833 21.8334V26.1667H24.1663V21.8334H19.833ZM15.4997 4.50008V8.83341H28.4997V4.50008H15.4997Z" fill="#0A2647"/>
</svg>
