<svg width="96" height="96" viewBox="0 0 96 96" fill="none" xmlns="http://www.w3.org/2000/svg">
<path d="M59.8966 12.0759L63.7366 5.14787C63.7857 5.0591 63.8168 4.96152 63.8283 4.86071C63.8397 4.75989 63.8311 4.65782 63.803 4.56032C63.775 4.46282 63.728 4.3718 63.6648 4.29245C63.6016 4.2131 63.5234 4.14698 63.4346 4.09787C63.3458 4.04875 63.2482 4.01761 63.1474 4.0062C63.0466 3.9948 62.9445 4.00336 62.847 4.03141C62.7495 4.05945 62.6585 4.10642 62.5792 4.16964C62.4998 4.23286 62.4337 4.3111 62.3846 4.39987L58.5046 11.3999C55.1924 9.94767 51.6151 9.1979 47.9986 9.1979C44.382 9.1979 40.8048 9.94767 37.4926 11.3999L33.6126 4.39987C33.5134 4.21952 33.3466 4.08596 33.149 4.02858C32.9513 3.97119 32.7389 3.99468 32.5586 4.09387C32.3782 4.19306 32.2447 4.35983 32.1873 4.55749C32.1299 4.75516 32.1534 4.96752 32.2526 5.14787L36.0926 12.0759C32.4389 13.8778 29.352 16.6511 27.1704 20.0915C24.9887 23.5319 23.7965 27.5067 23.7246 31.5799H72.2726C72.1999 27.5058 71.0065 23.5305 68.8234 20.09C66.6403 16.6495 63.5517 13.8767 59.8966 12.0759ZM36.7966 22.6959C36.3953 22.6959 36.0031 22.5768 35.6695 22.3538C35.3359 22.1308 35.076 21.8138 34.9226 21.443C34.7692 21.0722 34.7293 20.6643 34.8079 20.2708C34.8864 19.8773 35.08 19.5159 35.364 19.2324C35.648 18.949 36.0097 18.7561 36.4034 18.6784C36.7971 18.6006 37.205 18.6413 37.5754 18.7954C37.9459 18.9495 38.2624 19.2101 38.4848 19.5441C38.7071 19.8781 38.8254 20.2706 38.8246 20.6719C38.8235 21.209 38.6094 21.7238 38.2292 22.1033C37.849 22.4828 37.3338 22.6959 36.7966 22.6959ZM59.2046 22.6959C58.8033 22.6959 58.4111 22.5768 58.0775 22.3538C57.7439 22.1308 57.484 21.8138 57.3306 21.443C57.1772 21.0722 57.1373 20.6643 57.2159 20.2708C57.2944 19.8773 57.488 19.5159 57.772 19.2324C58.056 18.949 58.4177 18.7561 58.8114 18.6784C59.2051 18.6006 59.6129 18.6413 59.9834 18.7954C60.3539 18.9495 60.6704 19.2101 60.8928 19.5441C61.1151 19.8781 61.2334 20.2706 61.2326 20.6719C61.2315 21.209 61.0174 21.7238 60.6372 22.1033C60.257 22.4828 59.7418 22.6959 59.2046 22.6959ZM23.7166 68.6839C23.7155 69.4562 23.8669 70.2211 24.1621 70.9347C24.4573 71.6483 24.8904 72.2967 25.4367 72.8426C25.983 73.3885 26.6316 73.8212 27.3455 74.1159C28.0593 74.4106 28.8243 74.5615 29.5966 74.5599H33.4886V86.5599C33.4886 88.0032 34.0619 89.3874 35.0825 90.408C36.1031 91.4285 37.4873 92.0019 38.9306 92.0019C40.3739 92.0019 41.7581 91.4285 42.7787 90.408C43.7992 89.3874 44.3726 88.0032 44.3726 86.5599V74.5599H51.6286V86.5599C51.6286 88.0027 52.2017 89.3863 53.2219 90.4065C54.2421 91.4267 55.6258 91.9999 57.0686 91.9999C58.5114 91.9999 59.8951 91.4267 60.9152 90.4065C61.9354 89.3863 62.5086 88.0027 62.5086 86.5599V74.5599H66.4046C67.1759 74.5604 67.9397 74.4089 68.6523 74.114C69.365 73.8191 70.0125 73.3866 70.5579 72.8412C71.1033 72.2958 71.5358 71.6483 71.8307 70.9356C72.1256 70.223 72.2771 69.4592 72.2766 68.6879V33.4999H23.7166V68.6839ZM16.2486 32.5639C14.8058 32.566 13.4227 33.1404 12.4029 34.161C11.383 35.1816 10.8097 36.5651 10.8086 38.0079V60.6839C10.8086 61.3983 10.9493 62.1057 11.2227 62.7657C11.4961 63.4257 11.8968 64.0254 12.4019 64.5305C12.9071 65.0357 13.5068 65.4364 14.1668 65.7098C14.8268 65.9832 15.5342 66.1239 16.2486 66.1239C16.963 66.1239 17.6704 65.9832 18.3304 65.7098C18.9904 65.4364 19.5901 65.0357 20.0953 64.5305C20.6004 64.0254 21.0011 63.4257 21.2745 62.7657C21.5479 62.1057 21.6886 61.3983 21.6886 60.6839V38.0079C21.6865 36.5657 21.1127 35.1833 20.0929 34.1635C19.0732 33.1438 17.6907 32.57 16.2486 32.5679V32.5639ZM79.7366 32.5639C78.2938 32.566 76.9107 33.1404 75.8908 34.161C74.871 35.1816 74.2976 36.5651 74.2966 38.0079V60.6839C74.2966 61.3983 74.4373 62.1057 74.7107 62.7657C74.9841 63.4257 75.3848 64.0254 75.8899 64.5305C76.3951 65.0357 76.9948 65.4364 77.6548 65.7098C78.3148 65.9832 79.0222 66.1239 79.7366 66.1239C80.451 66.1239 81.1584 65.9832 81.8184 65.7098C82.4784 65.4364 83.0781 65.0357 83.5832 64.5305C84.0884 64.0254 84.4891 63.4257 84.7625 62.7657C85.0359 62.1057 85.1766 61.3983 85.1766 60.6839V38.0079C85.1745 36.5657 84.6006 35.1833 83.5809 34.1635C82.5612 33.1438 81.1787 32.57 79.7366 32.5679V32.5639Z" fill="#0A2647"/>
</svg>
