<svg width="96" height="96" viewBox="0 0 96 96" fill="none" xmlns="http://www.w3.org/2000/svg">
<path d="M74.8404 78C71.5204 82.96 68.0004 87.8 62.6404 87.88C57.2804 88 55.5604 84.72 49.4804 84.72C43.3604 84.72 41.4804 87.8 36.4004 88C31.1604 88.2 27.2004 82.72 23.8404 77.88C17.0004 68 11.7604 49.8 18.8004 37.56C22.2804 31.48 28.5204 27.64 35.2804 27.52C40.4004 27.44 45.2804 31 48.4404 31C51.5604 31 57.4804 26.72 63.6804 27.36C66.2804 27.48 73.5604 28.4 78.2404 35.28C77.8804 35.52 69.5604 40.4 69.6404 50.52C69.7604 62.6 80.2404 66.64 80.3604 66.68C80.2404 66.96 78.6804 72.44 74.8404 78ZM52.0004 14C54.9204 10.68 59.7604 8.16 63.7604 8C64.2804 12.68 62.4004 17.4 59.6004 20.76C56.8404 24.16 52.2804 26.8 47.8004 26.44C47.2004 21.84 49.4404 17.04 52.0004 14Z" fill="#0A2647"/>
</svg>
