<svg width="236" height="70" viewBox="0 0 236 70" fill="none" xmlns="http://www.w3.org/2000/svg">
<path d="M227.627 0H8.71601C4.14032 0 0.287109 3.85321 0.287109 8.4289V61.7317C0.287109 66.3073 4.14032 70 8.71601 70H227.546C232.122 70 235.574 66.2271 235.574 61.7317V8.4289C235.574 3.85321 232.202 0 227.627 0Z" fill="black"/>
<path d="M53.0271 34.6799C52.9468 29.0606 57.6028 26.3312 57.8436 26.1707C55.1945 22.3175 51.1005 21.8358 49.6555 21.7556C46.2037 21.4344 42.9124 23.8427 41.1464 23.8427C39.3803 23.8427 36.651 21.8358 33.7611 21.9161C29.9881 21.9964 26.5363 24.1638 24.6097 27.4551C20.6762 34.2785 23.5661 44.3932 27.4193 49.9322C29.3459 52.6615 31.5133 55.6317 34.4032 55.5514C37.2129 55.4711 38.3367 53.7051 41.7083 53.7051C45.0799 53.7051 46.1234 55.5514 49.0134 55.4711C52.0638 55.3909 53.9904 52.7418 55.8368 50.0124C58.0042 46.8817 58.8872 43.8312 58.9675 43.6707C58.8872 43.6707 53.1074 41.423 53.0271 34.6799Z" fill="white"/>
<path d="M47.4085 18.1421C48.9338 16.2155 49.9773 13.6466 49.6562 10.9976C47.4888 11.0778 44.6791 12.5228 43.0736 14.3691C41.6287 15.9746 40.4246 18.704 40.7457 21.2728C43.3145 21.4333 45.8833 19.9884 47.4085 18.1421Z" fill="white"/>
<path d="M94.0481 55.149H90.1146L87.9472 48.3256H80.4013L78.3142 55.149H74.4609L81.9266 31.9495H86.5825L94.0481 55.149ZM87.305 45.4357L85.3784 39.3348C85.1376 38.6926 84.8165 37.2476 84.1742 34.9196H84.094C83.8531 35.883 83.532 37.3279 82.9701 39.3348L81.0435 45.4357H87.305Z" fill="white"/>
<path d="M113.315 46.5592C113.315 49.3689 112.512 51.6968 110.987 53.3023C109.622 54.7473 107.937 55.4698 105.849 55.4698C103.682 55.4698 102.076 54.667 101.113 53.0615H101.033V61.8918H97.3402V43.9101C97.3402 42.1441 97.26 40.2978 97.1797 38.3711H100.471L100.712 41.0202H100.792C101.996 39.0133 103.923 38.05 106.411 38.05C108.418 38.05 110.024 38.8528 111.388 40.378C112.593 41.9835 113.315 43.9904 113.315 46.5592ZM109.462 46.7198C109.462 45.1143 109.06 43.7496 108.338 42.706C107.535 41.5822 106.492 41.0202 105.127 41.0202C104.244 41.0202 103.361 41.3413 102.638 41.9033C101.916 42.5455 101.434 43.3482 101.193 44.3115C101.113 44.7932 101.033 45.1143 101.033 45.4354V48.245C101.033 49.4491 101.434 50.4927 102.157 51.2955C102.879 52.0982 103.843 52.5799 105.047 52.5799C106.411 52.5799 107.535 52.0179 108.338 50.9744C109.141 49.8505 109.462 48.4858 109.462 46.7198Z" fill="white"/>
<path d="M132.581 46.5592C132.581 49.3689 131.778 51.6968 130.253 53.3023C128.888 54.7473 127.202 55.4698 125.115 55.4698C122.948 55.4698 121.342 54.667 120.379 53.0615H120.299V61.8918H116.606V43.9101C116.606 42.1441 116.526 40.2978 116.445 38.3711H119.737L119.977 41.0202H120.058C121.262 39.0133 123.188 38.05 125.677 38.05C127.684 38.05 129.289 38.8528 130.654 40.378C131.858 41.9835 132.581 43.9904 132.581 46.5592ZM128.727 46.7198C128.727 45.1143 128.326 43.7496 127.604 42.706C126.801 41.5822 125.757 41.0202 124.393 41.0202C123.51 41.0202 122.626 41.3413 121.904 41.9033C121.182 42.5455 120.7 43.3482 120.459 44.3115C120.379 44.7932 120.299 45.1143 120.299 45.4354V48.245C120.299 49.4491 120.7 50.4927 121.422 51.2955C122.145 52.0982 123.108 52.5799 124.312 52.5799C125.677 52.5799 126.801 52.0179 127.604 50.9744C128.326 49.8505 128.727 48.4858 128.727 46.7198Z" fill="white"/>
<path d="M154.094 48.6472C154.094 50.654 153.372 52.2596 152.007 53.4637C150.482 54.8284 148.395 55.4706 145.665 55.4706C143.177 55.4706 141.17 54.9889 139.645 54.0256L140.528 50.8949C142.133 51.8582 143.979 52.3398 145.906 52.3398C147.271 52.3398 148.395 52.0187 149.197 51.3765C150 50.7343 150.401 49.9316 150.401 48.8077C150.401 47.8444 150.08 47.0417 149.438 46.3995C148.796 45.7573 147.752 45.1953 146.227 44.6334C142.133 43.1082 140.126 40.8605 140.126 37.9706C140.126 36.0439 140.849 34.5187 142.294 33.3146C143.739 32.1105 145.585 31.4683 147.993 31.4683C150.08 31.4683 151.846 31.8696 153.291 32.5921L152.328 35.6426C151.044 34.9201 149.518 34.599 147.913 34.599C146.628 34.599 145.585 34.9201 144.862 35.5623C144.22 36.1242 143.899 36.8467 143.899 37.6495C143.899 38.5325 144.22 39.3352 144.943 39.8972C145.585 40.4591 146.709 41.021 148.314 41.6632C150.321 42.466 151.766 43.4293 152.729 44.4729C153.612 45.677 154.094 47.0417 154.094 48.6472Z" fill="white"/>
<path d="M166.376 41.1812H162.282V49.289C162.282 51.3762 163.005 52.4198 164.45 52.4198C165.092 52.4198 165.654 52.3395 166.136 52.2592L166.216 55.0688C165.493 55.3097 164.53 55.4702 163.326 55.4702C161.881 55.4702 160.677 54.9886 159.874 54.1055C159.071 53.2225 158.67 51.6973 158.67 49.6101V41.1812H156.262V38.3716H158.67V35.3211L162.363 34.1973V38.3716H166.457V41.1812H166.376Z" fill="white"/>
<path d="M184.84 46.6398C184.84 49.2086 184.117 51.2958 182.672 52.9815C181.147 54.6673 179.06 55.5503 176.571 55.5503C174.083 55.5503 172.156 54.7476 170.711 53.1421C169.266 51.5366 168.544 49.4494 168.544 46.9609C168.544 44.3921 169.266 42.2247 170.792 40.6191C172.317 38.9334 174.324 38.1306 176.893 38.1306C179.381 38.1306 181.308 38.9334 182.833 40.5389C184.198 42.0641 184.84 44.1513 184.84 46.6398ZM180.987 46.7201C180.987 45.1948 180.666 43.8302 180.023 42.7063C179.221 41.3416 178.097 40.6994 176.652 40.6994C175.127 40.6994 174.003 41.3416 173.28 42.7063C172.638 43.8302 172.317 45.1948 172.317 46.7201C172.317 48.2453 172.638 49.61 173.28 50.6536C174.083 52.0182 175.207 52.6604 176.652 52.6604C178.097 52.6604 179.221 52.0182 180.023 50.6536C180.666 49.61 180.987 48.3256 180.987 46.7201Z" fill="white"/>
<path d="M196.962 41.6626C196.56 41.5824 196.239 41.5824 195.757 41.5824C194.473 41.5824 193.429 42.064 192.707 43.0273C192.065 43.9103 191.744 45.0342 191.744 46.3186V55.0686H188.131V43.5892C188.131 41.6626 188.051 39.8966 187.971 38.2911H191.182L191.342 41.5021H191.423C191.824 40.3782 192.466 39.4952 193.269 38.853C194.072 38.2911 194.955 37.97 195.918 37.97C196.239 37.97 196.56 37.97 196.881 38.0502V41.6626H196.962Z" fill="white"/>
<path d="M213.579 45.9975C213.579 46.6397 213.499 47.2016 213.418 47.6833H202.26C202.34 49.3691 202.822 50.5732 203.866 51.4562C204.829 52.259 206.033 52.6603 207.478 52.6603C209.164 52.6603 210.609 52.4195 211.973 51.8576L212.535 54.4264C210.93 55.1489 209.083 55.47 206.916 55.47C204.347 55.47 202.26 54.6672 200.815 53.142C199.37 51.6168 198.567 49.5296 198.567 46.9608C198.567 44.4723 199.29 42.3048 200.655 40.6191C202.099 38.853 204.026 37.97 206.515 37.97C208.923 37.97 210.769 38.853 211.973 40.6191C213.097 42.1443 213.579 43.9103 213.579 45.9975ZM210.047 45.0342C210.047 43.9103 209.806 42.947 209.324 42.1443C208.682 41.1007 207.719 40.6191 206.354 40.6191C205.15 40.6191 204.187 41.1007 203.384 42.1443C202.742 42.947 202.421 43.9103 202.26 45.0342H210.047Z" fill="white"/>
<path d="M86.0209 17.6606C86.0209 19.7477 85.3787 21.273 84.1746 22.3165C83.0507 23.2798 81.4452 23.7615 79.3581 23.7615C78.3145 23.7615 77.4315 23.6812 76.709 23.6009V12.3624C77.6723 12.2019 78.7159 12.1216 79.8397 12.1216C81.8466 12.1216 83.3718 12.523 84.3351 13.406C85.459 14.3693 86.0209 15.8142 86.0209 17.6606ZM84.0943 17.6606C84.0943 16.2959 83.7732 15.3326 83.0507 14.6101C82.3282 13.8876 81.2847 13.5665 80.0003 13.5665C79.4383 13.5665 78.9567 13.5665 78.5553 13.6468V22.156C78.7961 22.156 79.1975 22.2363 79.7594 22.2363C81.1241 22.2363 82.248 21.8349 82.9704 21.0321C83.7732 20.3097 84.0943 19.1858 84.0943 17.6606Z" fill="white"/>
<path d="M96.2963 19.4265C96.2963 20.7109 95.9752 21.7545 95.1724 22.5572C94.45 23.36 93.4064 23.8416 92.122 23.8416C90.9178 23.8416 89.9545 23.4403 89.232 22.6375C88.5096 21.8348 88.1885 20.7912 88.1885 19.5871C88.1885 18.3027 88.5898 17.2591 89.3123 16.4563C90.0348 15.6536 91.0784 15.2522 92.2825 15.2522C93.4866 15.2522 94.45 15.6536 95.1724 16.4563C95.8949 17.1788 96.2963 18.2224 96.2963 19.4265ZM94.3697 19.5068C94.3697 18.7843 94.2091 18.0618 93.888 17.5802C93.4866 16.938 92.9247 16.6169 92.2825 16.6169C91.56 16.6169 90.9981 16.938 90.5967 17.5802C90.2756 18.1421 90.1151 18.7843 90.1151 19.5871C90.1151 20.3095 90.2756 21.032 90.5967 21.5137C90.9981 22.1559 91.56 22.477 92.2825 22.477C93.005 22.477 93.5669 22.1559 93.888 21.5137C94.2091 20.8715 94.3697 20.2293 94.3697 19.5068Z" fill="white"/>
<path d="M109.943 15.4128L107.374 23.6009H105.688L104.645 20.0688C104.404 19.1858 104.163 18.3028 104.003 17.4197C103.842 18.3028 103.601 19.1858 103.36 20.0688L102.237 23.6009H100.551L98.1426 15.4128H99.9889L100.952 19.3463C101.193 20.3096 101.354 21.1124 101.514 21.9954C101.675 21.2729 101.835 20.4702 102.156 19.3463L103.36 15.4128H104.886L106.01 19.2661C106.25 20.2294 106.491 21.1124 106.652 21.9954H106.732C106.893 21.1124 107.053 20.2294 107.294 19.2661L108.257 15.4128H109.943Z" fill="white"/>
<path d="M119.495 23.6008H117.649V18.8646C117.649 17.4196 117.087 16.6972 115.963 16.6972C115.401 16.6972 115 16.8577 114.679 17.2591C114.358 17.6605 114.197 18.1421 114.197 18.704V23.6008H112.351V17.7407C112.351 17.0183 112.351 16.2155 112.271 15.4127H113.876L113.956 16.6972H114.037C114.277 16.2958 114.598 15.9747 115 15.7338C115.482 15.4127 116.043 15.2522 116.686 15.2522C117.488 15.2522 118.131 15.493 118.612 15.9747C119.254 16.6169 119.576 17.4999 119.576 18.704V23.6008H119.495Z" fill="white"/>
<path d="M124.473 23.6011H122.627V11.6401H124.473V23.6011Z" fill="white"/>
<path d="M135.23 19.4265C135.23 20.7109 134.909 21.7545 134.106 22.5572C133.384 23.36 132.34 23.8416 131.056 23.8416C129.851 23.8416 128.888 23.4403 128.166 22.6375C127.443 21.8348 127.122 20.7912 127.122 19.5871C127.122 18.3027 127.523 17.2591 128.246 16.4563C128.968 15.6536 130.012 15.2522 131.216 15.2522C132.42 15.2522 133.384 15.6536 134.106 16.4563C134.909 17.1788 135.23 18.2224 135.23 19.4265ZM133.384 19.5068C133.384 18.7843 133.223 18.0618 132.902 17.5802C132.501 16.938 131.939 16.6169 131.296 16.6169C130.574 16.6169 130.012 16.938 129.611 17.5802C129.29 18.1421 129.129 18.7843 129.129 19.5871C129.129 20.3095 129.29 21.032 129.611 21.5137C130.012 22.1559 130.574 22.477 131.296 22.477C132.019 22.477 132.501 22.1559 132.902 21.5137C133.223 20.8715 133.384 20.2293 133.384 19.5068Z" fill="white"/>
<path d="M144.141 23.6008H142.535L142.375 22.6375H142.294C141.732 23.36 140.93 23.7613 139.886 23.7613C139.083 23.7613 138.521 23.5205 138.04 23.0388C137.638 22.5572 137.397 21.9953 137.397 21.3531C137.397 20.3095 137.799 19.587 138.682 19.0251C139.485 18.4632 140.689 18.2223 142.214 18.2223V18.0618C142.214 17.0182 141.652 16.4563 140.528 16.4563C139.725 16.4563 139.003 16.6971 138.361 17.0985L137.959 15.8944C138.762 15.4127 139.645 15.1719 140.769 15.1719C142.936 15.1719 143.98 16.2957 143.98 18.5434V21.6742C143.98 22.4769 144.06 23.1191 144.141 23.6008ZM142.214 20.7911V19.5067C140.207 19.5067 139.164 19.9884 139.164 21.1925C139.164 21.5939 139.244 21.915 139.485 22.1558C139.725 22.3966 140.047 22.4769 140.368 22.4769C140.769 22.4769 141.17 22.3164 141.492 22.0755C141.813 21.8347 142.053 21.5136 142.134 21.1122C142.214 21.032 142.214 20.8714 142.214 20.7911Z" fill="white"/>
<path d="M154.496 23.6011H152.89L152.81 22.3167H152.73C152.248 23.3603 151.365 23.842 150.081 23.842C149.117 23.842 148.234 23.4406 147.592 22.6378C146.95 21.8351 146.629 20.8718 146.629 19.5874C146.629 18.2227 146.95 17.1791 147.672 16.3764C148.395 15.5736 149.198 15.2525 150.241 15.2525C151.365 15.2525 152.088 15.6539 152.569 16.3764V11.6401H154.416V21.4337C154.416 22.1562 154.496 22.9589 154.496 23.6011ZM152.65 20.1493V18.7846C152.65 18.5438 152.65 18.3833 152.569 18.2227C152.489 17.8213 152.248 17.42 151.927 17.0989C151.606 16.7778 151.205 16.6172 150.723 16.6172C150.081 16.6172 149.519 16.858 149.117 17.42C148.716 17.9819 148.556 18.6241 148.556 19.5071C148.556 20.3099 148.716 20.9521 149.117 21.514C149.519 22.0759 150.081 22.3167 150.723 22.3167C151.285 22.3167 151.767 22.0759 152.168 21.6745C152.409 21.1929 152.65 20.7112 152.65 20.1493Z" fill="white"/>
<path d="M170.15 19.4265C170.15 20.7109 169.829 21.7545 169.106 22.5572C168.384 23.36 167.34 23.8416 166.056 23.8416C164.851 23.8416 163.888 23.4403 163.166 22.6375C162.443 21.8348 162.122 20.7912 162.122 19.5871C162.122 18.3027 162.523 17.2591 163.246 16.4563C163.968 15.6536 165.012 15.2522 166.216 15.2522C167.42 15.2522 168.384 15.6536 169.106 16.4563C169.829 17.1788 170.15 18.2224 170.15 19.4265ZM168.223 19.5068C168.223 18.7843 168.062 18.0618 167.741 17.5802C167.34 16.938 166.778 16.6169 166.136 16.6169C165.413 16.6169 164.851 16.938 164.45 17.5802C164.129 18.1421 163.968 18.7843 163.968 19.5871C163.968 20.3095 164.129 21.032 164.45 21.5137C164.851 22.1559 165.413 22.477 166.136 22.477C166.858 22.477 167.42 22.1559 167.741 21.5137C168.062 20.8715 168.223 20.2293 168.223 19.5068Z" fill="white"/>
<path d="M179.944 23.6008H178.097V18.8646C178.097 17.4196 177.535 16.6972 176.411 16.6972C175.85 16.6972 175.448 16.8577 175.127 17.2591C174.806 17.6605 174.645 18.1421 174.645 18.704V23.6008H172.799V17.7407C172.799 17.0183 172.799 16.2155 172.719 15.4127H174.324L174.405 16.6972H174.485C174.726 16.2958 175.047 15.9747 175.448 15.7338C175.93 15.4127 176.492 15.2522 177.134 15.2522C177.937 15.2522 178.499 15.493 179.061 15.9747C179.703 16.6169 180.024 17.4999 180.024 18.704V23.6008H179.944Z" fill="white"/>
<path d="M192.305 16.778H190.298V20.7918C190.298 21.8353 190.62 22.317 191.342 22.317C191.663 22.317 191.904 22.317 192.145 22.2367L192.225 23.6014C191.904 23.762 191.422 23.8422 190.78 23.8422C190.058 23.8422 189.496 23.6014 189.094 23.2C188.693 22.7986 188.452 21.9959 188.452 20.9523V16.778H187.248V15.4133H188.452V13.8881L190.218 13.3262V15.4133H192.225V16.778H192.305Z" fill="white"/>
<path d="M201.938 23.6011H200.172V18.9452C200.172 17.5002 199.61 16.6975 198.487 16.6975C197.604 16.6975 197.042 17.0989 196.721 17.9819C196.64 18.1424 196.64 18.3833 196.64 18.6241V23.6011H194.794V11.6401H196.64V16.6172C197.202 15.7342 198.005 15.2525 199.129 15.2525C199.851 15.2525 200.493 15.4933 200.975 15.975C201.617 16.6172 201.938 17.5002 201.938 18.7044V23.6011Z" fill="white"/>
<path d="M211.973 19.1056C211.973 19.4267 211.973 19.7478 211.893 19.9083H206.434C206.434 20.7111 206.755 21.3533 207.237 21.7546C207.718 22.156 208.28 22.3166 209.003 22.3166C209.805 22.3166 210.528 22.156 211.25 21.9152L211.571 23.1996C210.769 23.5207 209.886 23.6812 208.842 23.6812C207.558 23.6812 206.594 23.2799 205.872 22.5574C205.149 21.8349 204.748 20.7913 204.748 19.5069C204.748 18.3028 205.069 17.2592 205.792 16.3762C206.514 15.4932 207.477 15.0918 208.682 15.0918C209.886 15.0918 210.769 15.4932 211.331 16.3762C211.732 17.179 211.973 18.062 211.973 19.1056ZM210.207 18.6239C210.207 18.062 210.126 17.5803 209.886 17.2592C209.565 16.7776 209.083 16.5368 208.441 16.5368C207.879 16.5368 207.397 16.7776 206.996 17.2592C206.675 17.6606 206.514 18.1423 206.434 18.7042H210.207V18.6239Z" fill="white"/>
</svg>
