<svg width="236" height="70" viewBox="0 0 236 70" fill="none" xmlns="http://www.w3.org/2000/svg">
<path d="M226.537 0.161133H8.75C3.93349 0.161133 0 4.09462 0 8.83086V61.09C0 65.9066 3.93349 69.8401 8.75 69.8401H226.537C231.353 69.8401 235.287 65.9066 235.287 61.09V8.83086C235.207 4.09462 231.353 0.161133 226.537 0.161133Z" fill="black"/>
<path d="M82.6032 17.9811C82.6032 19.4261 82.2018 20.6302 81.3188 21.433C80.3555 22.4766 79.0711 22.9582 77.4656 22.9582C75.9403 22.9582 74.6559 22.3963 73.6123 21.3527C72.5688 20.3091 72.0068 19.0247 72.0068 17.4995C72.0068 15.9743 72.5688 14.6899 73.6123 13.6463C74.6559 12.6027 75.9403 12.0408 77.4656 12.0408C78.188 12.0408 78.9105 12.2013 79.633 12.4421C80.2752 12.7632 80.8371 13.0843 81.2385 13.6463L80.3555 14.5293C79.633 13.7266 78.75 13.3252 77.4656 13.3252C76.3417 13.3252 75.3784 13.7266 74.5756 14.449C73.7729 15.2518 73.3715 16.2151 73.3715 17.4995C73.3715 18.7036 73.7729 19.7472 74.5756 20.5499C75.3784 21.3527 76.3417 21.6738 77.4656 21.6738C78.6697 21.6738 79.633 21.2724 80.3555 20.4697C80.8371 19.988 81.1582 19.2655 81.2385 18.3825H77.4656V17.0981H82.5229C82.6032 17.4995 82.6032 17.7403 82.6032 17.9811Z" fill="white" stroke="white" stroke-width="0.1544" stroke-miterlimit="10"/>
<path d="M90.6312 13.646H85.895V16.9373H90.1495V18.2217H85.895V21.5129H90.6312V22.7974H84.5303V12.3616H90.6312V13.646Z" fill="white" stroke="white" stroke-width="0.1544" stroke-miterlimit="10"/>
<path d="M96.3308 22.7974H94.9661V13.646H92.0762V12.3616H99.3009V13.646H96.3308V22.7974Z" fill="white" stroke="white" stroke-width="0.1544" stroke-miterlimit="10"/>
<path d="M104.438 22.7974V12.3616H105.803V22.7974H104.438Z" fill="white" stroke="white" stroke-width="0.1544" stroke-miterlimit="10"/>
<path d="M111.744 22.7974H110.379V13.646H107.489V12.3616H114.634V13.646H111.744V22.7974Z" fill="white" stroke="white" stroke-width="0.1544" stroke-miterlimit="10"/>
<path d="M128.28 21.433C127.237 22.4766 125.952 23.0385 124.427 23.0385C122.902 23.0385 121.618 22.4766 120.574 21.433C119.53 20.3894 119.049 19.105 119.049 17.5798C119.049 16.0546 119.53 14.7702 120.574 13.7266C121.618 12.683 122.902 12.1211 124.427 12.1211C125.952 12.1211 127.237 12.683 128.28 13.7266C129.324 14.7702 129.806 16.0546 129.806 17.5798C129.806 19.105 129.324 20.3894 128.28 21.433ZM121.618 20.55C122.42 21.3527 123.303 21.7541 124.427 21.7541C125.551 21.7541 126.514 21.3527 127.237 20.55C128.04 19.7472 128.361 18.7839 128.361 17.5798C128.361 16.3757 127.959 15.3321 127.237 14.6096C126.434 13.8069 125.551 13.4055 124.427 13.4055C123.303 13.4055 122.34 13.8069 121.618 14.6096C120.815 15.4124 120.494 16.3757 120.494 17.5798C120.494 18.7839 120.815 19.7472 121.618 20.55Z" fill="white" stroke="white" stroke-width="0.1544" stroke-miterlimit="10"/>
<path d="M131.731 22.7974V12.3616H133.337L138.394 20.4694H138.475L138.394 18.4625V12.3616H139.759V22.7974H138.394L133.096 14.2882H133.016L133.096 16.2951V22.7974H131.731Z" fill="white" stroke="white" stroke-width="0.1544" stroke-miterlimit="10"/>
<path d="M118.727 38.0498C114.633 38.0498 111.261 41.1806 111.261 45.4352C111.261 49.6898 114.633 52.8205 118.727 52.8205C122.821 52.8205 126.192 49.6898 126.192 45.4352C126.192 41.1806 122.821 38.0498 118.727 38.0498ZM118.727 49.9306C116.479 49.9306 114.553 48.0843 114.553 45.4352C114.553 42.7861 116.479 40.9398 118.727 40.9398C120.975 40.9398 122.901 42.7861 122.901 45.4352C122.901 48.0843 120.975 49.9306 118.727 49.9306ZM102.511 38.0498C98.4172 38.0498 95.0456 41.1806 95.0456 45.4352C95.0456 49.6898 98.4172 52.8205 102.511 52.8205C106.605 52.8205 109.977 49.6898 109.977 45.4352C109.977 41.1806 106.605 38.0498 102.511 38.0498ZM102.511 49.9306C100.264 49.9306 98.3369 48.0843 98.3369 45.4352C98.3369 42.7861 100.264 40.9398 102.511 40.9398C104.759 40.9398 106.686 42.7861 106.686 45.4352C106.686 48.0843 104.759 49.9306 102.511 49.9306ZM83.1649 40.2976V43.4283H90.7108C90.47 45.1943 89.908 46.4787 89.025 47.3618C87.9011 48.4856 86.2154 49.6898 83.2452 49.6898C78.5892 49.6898 74.9768 45.9168 74.9768 41.3411C74.9768 36.7654 78.5892 32.9925 83.2452 32.9925C85.7337 32.9925 87.58 33.9558 88.9447 35.2402L91.1924 32.9925C89.3461 31.2264 86.7773 29.7815 83.3255 29.7815C76.9837 29.7815 71.6855 34.9191 71.6855 41.2609C71.6855 47.6026 76.9837 52.7402 83.3255 52.7402C86.7773 52.7402 89.3461 51.6164 91.353 49.5292C93.4401 47.4421 94.0823 44.5521 94.0823 42.1439C94.0823 41.4214 94.0021 40.7792 93.9218 40.2173H83.1649V40.2976ZM162.156 42.7861C161.514 41.1003 159.667 38.0498 155.814 38.0498C151.961 38.0498 148.83 41.02 148.83 45.4352C148.83 49.6095 151.961 52.8205 156.215 52.8205C159.587 52.8205 161.594 50.7333 162.397 49.5292L159.908 47.8434C159.105 49.0476 157.901 49.9306 156.296 49.9306C154.61 49.9306 153.486 49.2081 152.683 47.6829L162.557 43.5888L162.156 42.7861ZM152.041 45.1943C151.961 42.3044 154.289 40.8595 155.894 40.8595C157.179 40.8595 158.303 41.5017 158.624 42.465L152.041 45.1943ZM144.014 52.4191H147.305V30.6645H144.014V52.4191ZM138.635 39.7356H138.555C137.832 38.8526 136.387 38.0498 134.621 38.0498C130.929 38.0498 127.557 41.3411 127.557 45.5154C127.557 49.6898 130.929 52.9008 134.621 52.9008C136.387 52.9008 137.832 52.098 138.555 51.215H138.635V52.2586C138.635 55.0682 137.11 56.5934 134.702 56.5934C132.695 56.5934 131.491 55.1485 130.929 53.9443L128.119 55.1485C128.922 57.0751 131.089 59.5636 134.702 59.5636C138.555 59.5636 141.766 57.3159 141.766 51.8572V38.5315H138.715V39.7356H138.635ZM134.942 49.9306C132.695 49.9306 130.848 48.0843 130.848 45.4352C130.848 42.7861 132.695 40.9398 134.942 40.9398C137.19 40.9398 138.876 42.8664 138.876 45.4352C138.876 48.0843 137.11 49.9306 134.942 49.9306ZM177.408 30.6645H169.621V52.4191H172.832V44.1508H177.408C181.02 44.1508 184.553 41.5017 184.553 37.4076C184.553 33.3136 181.02 30.6645 177.408 30.6645ZM177.488 41.1003H172.832V33.6347H177.488C179.897 33.6347 181.261 35.6416 181.261 37.4076C181.261 39.0934 179.897 41.1003 177.488 41.1003ZM197.557 37.9696C195.229 37.9696 192.741 39.0131 191.777 41.3411L194.667 42.5453C195.309 41.3411 196.433 40.9398 197.637 40.9398C199.323 40.9398 201.009 41.9833 201.089 43.7494V43.9902C200.527 43.6691 199.243 43.1875 197.718 43.1875C194.587 43.1875 191.456 44.8732 191.456 48.0843C191.456 50.9742 194.025 52.9008 196.835 52.9008C199.002 52.9008 200.206 51.9375 201.009 50.7333H201.089V52.4191H204.22V44.0705C204.22 40.137 201.33 37.9696 197.557 37.9696ZM197.156 49.9306C196.112 49.9306 194.587 49.3687 194.587 48.0843C194.587 46.3985 196.433 45.7563 198.039 45.7563C199.484 45.7563 200.126 46.0774 201.009 46.4787C200.768 48.4856 199.082 49.9306 197.156 49.9306ZM215.619 38.4512L211.926 47.9237H211.846L207.913 38.4512H204.381L210.16 51.6164L206.869 58.9214H210.241L219.151 38.3709H215.619V38.4512ZM186.319 52.4191H189.53V30.6645H186.319V52.4191Z" fill="white"/>
<path d="M18.2227 13.2458C17.741 13.8077 17.4199 14.6105 17.4199 15.6541V54.1862C17.4199 55.2298 17.741 56.1128 18.2227 56.5944L18.3832 56.755L39.9773 35.1609V34.9201V34.6793L18.3029 13.1655L18.2227 13.2458Z" fill="url(#paint0_linear_97_515)"/>
<path d="M47.1213 42.4666L39.8965 35.2418V35.001V34.7602L47.1213 27.5354L47.2818 27.6157L55.791 32.4322C58.1992 33.7969 58.1992 36.0446 55.791 37.4895L47.2818 42.306L47.1213 42.4666Z" fill="url(#paint1_linear_97_515)"/>
<path d="M47.2813 42.3853L39.896 35L18.2217 56.6743C19.0244 57.5573 20.3891 57.6376 21.8341 56.7546L47.2813 42.3853Z" fill="url(#paint2_linear_97_515)"/>
<path d="M47.2813 27.6151L21.8341 13.1655C20.3088 12.2825 19.0244 12.4431 18.2217 13.2458L39.9763 35.0004L47.2813 27.6151Z" fill="url(#paint3_linear_97_515)"/>
<path opacity="0.2" d="M47.1217 42.2241L21.835 56.5934C20.3901 57.3961 19.186 57.3159 18.3832 56.5934L18.2227 56.7539L18.3832 56.9145C19.186 57.637 20.4704 57.7172 21.835 56.9145L47.2823 42.4649L47.1217 42.2241Z" fill="black"/>
<path opacity="0.12" d="M18.2227 56.4344C17.741 55.8725 17.4199 55.0697 17.4199 54.0261V54.2669C17.4199 55.3105 17.741 56.1936 18.2227 56.6752L18.3832 56.5147L18.2227 56.4344Z" fill="black"/>
<path opacity="0.12" d="M55.7908 37.2478L47.1211 42.2248L47.2816 42.3854L55.7908 37.5689C56.9949 36.8464 57.6372 35.9634 57.6372 35.0803C57.4766 35.8028 56.9147 36.6056 55.7908 37.2478Z" fill="black"/>
<path opacity="0.25" d="M21.8345 13.4053L55.7909 32.7516C56.9147 33.3938 57.4767 34.1966 57.6372 34.9993C57.6372 34.1163 56.995 33.153 55.7909 32.5108L21.8345 13.1645C19.4262 11.7998 17.4193 12.9237 17.4193 15.7333V15.9741C17.339 13.1645 19.3459 12.0406 21.8345 13.4053Z" fill="white"/>
<defs>
<linearGradient id="paint0_linear_97_515" x1="37.9871" y1="15.3215" x2="8.74297" y2="44.5656" gradientUnits="userSpaceOnUse">
<stop stop-color="#00A0FF"/>
<stop offset="0.00657445" stop-color="#00A1FF"/>
<stop offset="0.2601" stop-color="#00BEFF"/>
<stop offset="0.5122" stop-color="#00D2FF"/>
<stop offset="0.7604" stop-color="#00DFFF"/>
<stop offset="1" stop-color="#00E3FF"/>
</linearGradient>
<linearGradient id="paint1_linear_97_515" x1="58.9574" y1="34.9984" x2="16.7933" y2="34.9984" gradientUnits="userSpaceOnUse">
<stop stop-color="#FFE000"/>
<stop offset="0.4087" stop-color="#FFBD00"/>
<stop offset="0.7754" stop-color="#FFA500"/>
<stop offset="1" stop-color="#FF9C00"/>
</linearGradient>
<linearGradient id="paint2_linear_97_515" x1="43.2611" y1="38.9959" x2="3.60379" y2="78.6533" gradientUnits="userSpaceOnUse">
<stop stop-color="#FF3A44"/>
<stop offset="1" stop-color="#C31162"/>
</linearGradient>
<linearGradient id="paint3_linear_97_515" x1="12.715" y1="0.451316" x2="30.4236" y2="18.16" gradientUnits="userSpaceOnUse">
<stop stop-color="#32A071"/>
<stop offset="0.0685" stop-color="#2DA771"/>
<stop offset="0.4762" stop-color="#15CF74"/>
<stop offset="0.8009" stop-color="#06E775"/>
<stop offset="1" stop-color="#00F076"/>
</linearGradient>
</defs>
</svg>
