<svg width="96" height="96" viewBox="0 0 96 96" fill="none" xmlns="http://www.w3.org/2000/svg">
<path d="M26 80C19.9333 80 14.7507 77.9 10.452 73.7C6.15067 69.5 4 64.3667 4 58.3C4 53.1 5.56667 48.4667 8.7 44.4C11.8333 40.3333 15.9333 37.7333 21 36.6C22.6667 30.4667 26 25.5 31 21.7C36 17.9 41.6667 16 48 16C55.8 16 62.416 18.716 67.848 24.148C73.2827 29.5827 76 36.2 76 44C80.6 44.5333 84.4173 46.516 87.452 49.948C90.484 53.3827 92 57.4 92 62C92 67 90.2507 71.2507 86.752 74.752C83.2507 78.2507 79 80 74 80H26Z" fill="#0A2647"/>
</svg>
